<svg width="25" height="25" viewBox="0 0 25 25" fill="none" xmlns="http://www.w3.org/2000/svg">
<g clip-path="url(#clip0_133_207)">
<path d="M6.58398 12.3223C5.99304 12.3223 5.40787 12.2059 4.86191 11.9797C4.31594 11.7536 3.81987 11.4221 3.402 11.0042C2.98414 10.5864 2.65267 10.0903 2.42653 9.54434C2.20038 8.99838 2.08398 8.41321 2.08398 7.82227C2.08398 7.23132 2.20038 6.64616 2.42653 6.10019C2.65267 5.55422 2.98414 5.05815 3.402 4.64029C3.81987 4.22242 4.31594 3.89095 4.86191 3.66481C5.40787 3.43866 5.99304 3.32227 6.58398 3.32227C7.77746 3.32227 8.92205 3.79637 9.76596 4.64029C10.6099 5.4842 11.084 6.62879 11.084 7.82227C11.084 9.01574 10.6099 10.1603 9.76596 11.0042C8.92205 11.8482 7.77746 12.3223 6.58398 12.3223ZM7.08398 22.3223C5.89051 22.3223 4.74592 21.8482 3.902 21.0042C3.05809 20.1603 2.58398 19.0157 2.58398 17.8223C2.58398 16.6288 3.05809 15.4842 3.902 14.6403C4.74592 13.7964 5.89051 13.3223 7.08398 13.3223C8.27746 13.3223 9.42205 13.7964 10.266 14.6403C11.1099 15.4842 11.584 16.6288 11.584 17.8223C11.584 19.0157 11.1099 20.1603 10.266 21.0042C9.42205 21.8482 8.27746 22.3223 7.08398 22.3223ZM17.084 12.3223C16.493 12.3223 15.9079 12.2059 15.3619 11.9797C14.8159 11.7536 14.3199 11.4221 13.902 11.0042C13.4841 10.5864 13.1527 10.0903 12.9265 9.54434C12.7004 8.99838 12.584 8.41321 12.584 7.82227C12.584 7.23132 12.7004 6.64616 12.9265 6.10019C13.1527 5.55422 13.4841 5.05815 13.902 4.64029C14.3199 4.22242 14.8159 3.89095 15.3619 3.66481C15.9079 3.43866 16.493 3.32227 17.084 3.32227C18.2775 3.32227 19.4221 3.79637 20.266 4.64029C21.1099 5.4842 21.584 6.62879 21.584 7.82227C21.584 9.01574 21.1099 10.1603 20.266 11.0042C19.4221 11.8482 18.2775 12.3223 17.084 12.3223ZM17.084 22.3223C15.8905 22.3223 14.7459 21.8482 13.902 21.0042C13.0581 20.1603 12.584 19.0157 12.584 17.8223C12.584 16.6288 13.0581 15.4842 13.902 14.6403C14.7459 13.7964 15.8905 13.3223 17.084 13.3223C18.2775 13.3223 19.4221 13.7964 20.266 14.6403C21.1099 15.4842 21.584 16.6288 21.584 17.8223C21.584 19.0157 21.1099 20.1603 20.266 21.0042C19.4221 21.8482 18.2775 22.3223 17.084 22.3223ZM6.58398 10.3223C7.24703 10.3223 7.88291 10.0589 8.35175 9.59003C8.82059 9.12119 9.08398 8.48531 9.08398 7.82227C9.08398 7.15922 8.82059 6.52334 8.35175 6.0545C7.88291 5.58566 7.24703 5.32227 6.58398 5.32227C5.92094 5.32227 5.28506 5.58566 4.81622 6.0545C4.34738 6.52334 4.08398 7.15922 4.08398 7.82227C4.08398 8.48531 4.34738 9.12119 4.81622 9.59003C5.28506 10.0589 5.92094 10.3223 6.58398 10.3223ZM7.08398 20.3223C7.74703 20.3223 8.38291 20.0589 8.85175 19.59C9.32059 19.1212 9.58398 18.4853 9.58398 17.8223C9.58398 17.1592 9.32059 16.5233 8.85175 16.0545C8.38291 15.5857 7.74703 15.3223 7.08398 15.3223C6.42094 15.3223 5.78506 15.5857 5.31622 16.0545C4.84738 16.5233 4.58398 17.1592 4.58398 17.8223C4.58398 18.4853 4.84738 19.1212 5.31622 19.59C5.78506 20.0589 6.42094 20.3223 7.08398 20.3223ZM17.084 10.3223C17.747 10.3223 18.3829 10.0589 18.8518 9.59003C19.3206 9.12119 19.584 8.48531 19.584 7.82227C19.584 7.15922 19.3206 6.52334 18.8518 6.0545C18.3829 5.58566 17.747 5.32227 17.084 5.32227C16.4209 5.32227 15.7851 5.58566 15.3162 6.0545C14.8474 6.52334 14.584 7.15922 14.584 7.82227C14.584 8.48531 14.8474 9.12119 15.3162 9.59003C15.7851 10.0589 16.4209 10.3223 17.084 10.3223ZM17.084 20.3223C17.747 20.3223 18.3829 20.0589 18.8518 19.59C19.3206 19.1212 19.584 18.4853 19.584 17.8223C19.584 17.1592 19.3206 16.5233 18.8518 16.0545C18.3829 15.5857 17.747 15.3223 17.084 15.3223C16.4209 15.3223 15.7851 15.5857 15.3162 16.0545C14.8474 16.5233 14.584 17.1592 14.584 17.8223C14.584 18.4853 14.8474 19.1212 15.3162 19.59C15.7851 20.0589 16.4209 20.3223 17.084 20.3223Z" fill="#686892"/>
</g>
<defs>
<clipPath id="clip0_133_207">
<rect width="24" height="24" fill="white" transform="translate(0.0839844 0.822266)"/>
</clipPath>
</defs>
</svg>
