<svg width="25" height="25" viewBox="0 0 25 25" fill="none" xmlns="http://www.w3.org/2000/svg">
<path d="M2.08399 9.81627C2.08346 9.02848 2.23834 8.24831 2.53975 7.52046C2.84117 6.7926 3.2832 6.13136 3.84053 5.57458C4.39787 5.0178 5.05956 4.57643 5.78772 4.27574C6.51587 3.97506 7.29619 3.82096 8.08399 3.82227H16.084C19.397 3.82227 22.084 6.51727 22.084 9.81627V21.8223H8.08399C4.77099 21.8223 2.08399 19.1273 2.08399 15.8283V9.81627ZM20.084 19.8223V9.81627C20.0813 8.75677 19.6589 7.74151 18.9091 6.99289C18.1594 6.24427 17.1435 5.82333 16.084 5.82227H8.08399C7.55883 5.82096 7.03859 5.92332 6.55308 6.1235C6.06758 6.32368 5.62636 6.61773 5.25475 6.98879C4.88313 7.35985 4.58842 7.80062 4.38751 8.28582C4.1866 8.77103 4.08346 9.29112 4.08399 9.81627V15.8283C4.08663 16.8878 4.5091 17.903 5.25884 18.6517C6.00859 19.4003 7.02448 19.8212 8.08399 19.8223H20.084ZM14.084 11.8223H16.084V13.8223H14.084V11.8223ZM8.08399 11.8223H10.084V13.8223H8.08399V11.8223Z" fill="#686892"/>
</svg>
