<svg width="25" height="25" viewBox="0 0 25 25" fill="none" xmlns="http://www.w3.org/2000/svg">
<path d="M2.57227 6.14258V4.63558C2.5741 4.37296 2.67917 4.1216 2.86478 3.9358C3.05039 3.75 3.30165 3.64467 3.56427 3.64258H21.5803C22.1283 3.64258 22.5723 4.08758 22.5723 4.63558V20.6496C22.5704 20.9122 22.4654 21.1636 22.2798 21.3494C22.0941 21.5352 21.8429 21.6405 21.5803 21.6426H3.56427C3.30108 21.6423 3.04876 21.5376 2.86276 21.3514C2.67675 21.1652 2.57227 20.9128 2.57227 20.6496V19.6426H20.5723V7.94258L12.5723 15.1426L2.57227 6.14258ZM0.572266 10.6426H5.57227V12.6426H0.572266V10.6426ZM0.572266 15.6426H8.57227V17.6426H0.572266V15.6426Z" fill="#686892"/>
</svg>
