<svg width="20" height="20" viewBox="0 0 20 20" fill="none" xmlns="http://www.w3.org/2000/svg">
<path d="M1.6665 4.16675L7.49984 1.66675L12.4998 4.16675L17.7523 1.91591C17.8157 1.88873 17.8849 1.87772 17.9536 1.88387C18.0223 1.89001 18.0884 1.91312 18.146 1.95112C18.2036 1.98912 18.2508 2.04082 18.2835 2.10158C18.3162 2.16234 18.3332 2.23026 18.3332 2.29925V15.8334L12.4998 18.3334L7.49984 15.8334L2.24734 18.0842C2.18393 18.1114 2.11477 18.1224 2.04606 18.1163C1.97735 18.1102 1.91124 18.087 1.85366 18.049C1.79608 18.011 1.74884 17.9593 1.71618 17.8986C1.68351 17.8378 1.66644 17.7699 1.6665 17.7009V4.16675ZM13.3332 16.1626L16.6665 14.7342V4.19425L13.3332 5.62258V16.1626ZM11.6665 16.0534V5.61341L8.33317 3.94675V14.3867L11.6665 16.0534ZM6.6665 14.3776V3.83758L3.33317 5.26591V15.8059L6.6665 14.3776Z" fill="white"/>
</svg>
