<svg width="15" height="14" viewBox="0 0 15 14" fill="none" xmlns="http://www.w3.org/2000/svg">
<g clip-path="url(#clip0_101_86)">
<path d="M10.5089 0H4.91271C2.63838 0 0.788086 1.8503 0.788086 4.12462V9.72078C0.788086 11.9951 2.63838 13.8454 4.91271 13.8454H10.5089C12.7832 13.8454 14.6335 11.9951 14.6335 9.72078V4.12462C14.6335 1.8503 12.7832 0 10.5089 0ZM13.2406 9.72078C13.2406 11.2295 12.0176 12.4526 10.5089 12.4526H4.91271C3.404 12.4526 2.18093 11.2295 2.18093 9.72078V4.12462C2.18093 2.61589 3.404 1.39285 4.91271 1.39285H10.5089C12.0176 1.39285 13.2406 2.61589 13.2406 4.12462V9.72078Z" fill="white"/>
<path d="M7.7108 3.3418C5.73628 3.3418 4.12988 4.94819 4.12988 6.92269C4.12988 8.89718 5.73628 10.5036 7.7108 10.5036C9.68532 10.5036 11.2917 8.89721 11.2917 6.92269C11.2917 4.94817 9.68532 3.3418 7.7108 3.3418ZM7.7108 9.11078C6.50235 9.11078 5.52273 8.13116 5.52273 6.92271C5.52273 5.71427 6.50238 4.73464 7.7108 4.73464C8.91924 4.73464 9.89886 5.71427 9.89886 6.92271C9.89886 8.13113 8.91922 9.11078 7.7108 9.11078Z" fill="white"/>
</g>
<defs>
<clipPath id="clip0_101_86">
<rect width="13.8454" height="13.8454" fill="white" transform="translate(0.788086)"/>
</clipPath>
</defs>
</svg>
