<svg width="15" height="15" viewBox="0 0 15 15" fill="none" xmlns="http://www.w3.org/2000/svg">
<path fill-rule="evenodd" clip-rule="evenodd" d="M5.62169 5.09021H8.22149V6.38521C8.59599 5.64041 9.55639 4.97121 10.9991 4.97121C13.7648 4.97121 14.4214 6.45381 14.4214 9.17401V14.2119H11.6214V9.79351C11.6214 8.24441 11.2469 7.37081 10.2935 7.37081C8.97119 7.37081 8.42169 8.31231 8.42169 9.79281V14.2119H5.62169V5.09021V5.09021ZM0.820387 14.0929H3.62039V4.97121H0.820387V14.0929V14.0929ZM4.02149 1.99691C4.02159 2.23161 3.97505 2.46398 3.88456 2.68053C3.79407 2.89707 3.66144 3.09347 3.49439 3.25831C3.15587 3.59475 2.69765 3.78307 2.22039 3.78191C1.74396 3.78159 1.2868 3.59375 0.947787 3.25901C0.781335 3.09361 0.649157 2.89699 0.558827 2.68042C0.468498 2.46384 0.421792 2.23157 0.421387 1.99691C0.421387 1.52301 0.610387 1.06941 0.948487 0.734814C1.28721 0.399625 1.74455 0.211705 2.22109 0.211914C2.69849 0.211914 3.15629 0.400214 3.49439 0.734814C3.83179 1.06941 4.02149 1.52301 4.02149 1.99691Z" fill="#BFBFBF"/>
</svg>
