<svg width="22" height="22" viewBox="0 0 22 22" fill="none" xmlns="http://www.w3.org/2000/svg">
<g clip-path="url(#clip0_133_350)">
<path d="M2.03034 5.13423V3.83653C2.03195 3.61038 2.12417 3.39393 2.28709 3.23394C2.45001 3.07394 2.67054 2.98325 2.90104 2.98145H18.7141C19.1951 2.98145 19.5848 3.36464 19.5848 3.83653V17.6264C19.5832 17.8526 19.4909 18.069 19.328 18.229C19.1651 18.389 18.9446 18.4797 18.7141 18.4815H2.90104C2.67004 18.4813 2.44858 18.3911 2.28531 18.2308C2.12205 18.0704 2.03034 17.8531 2.03034 17.6264V16.7593H17.8293V6.68424L10.8076 12.8843L2.03034 5.13423ZM0.274902 9.00925H4.66351V10.7315H0.274902V9.00925ZM0.274902 13.3148H7.29667V15.0371H0.274902V13.3148Z" fill="#686892"/>
</g>
<defs>
<clipPath id="clip0_133_350">
<rect width="21.0653" height="20.6668" fill="white" transform="translate(0.274902 0.397949)"/>
</clipPath>
</defs>
</svg>
