<svg width="11" height="15" viewBox="0 0 11 15" fill="none" xmlns="http://www.w3.org/2000/svg">
<path d="M0.421433 5.23387C0.421433 4.62859 0.519641 4.05676 0.71317 3.52306C0.898072 3.00468 1.17279 2.52892 1.52267 2.12111C1.87184 1.71867 2.27142 1.37066 2.70984 1.08716C3.15966 0.793975 3.64665 0.572787 4.15553 0.430533C4.67055 0.284832 5.20088 0.211353 5.73337 0.211917C6.55586 0.211917 7.32131 0.399414 8.03116 0.772851C8.73174 1.13948 9.32805 1.70212 9.75776 2.40197C10.2011 3.11383 10.4214 3.91906 10.4214 4.81686C10.4214 5.35523 10.3723 5.88193 10.2719 6.39697C10.1733 6.91171 10.0167 7.41153 9.80542 7.88527C9.60404 8.34386 9.34074 8.7678 9.02408 9.14328C8.70583 9.5128 8.3204 9.80781 7.89179 10.01C7.42646 10.2297 6.92308 10.3403 6.41505 10.3344C6.06193 10.3344 5.70954 10.2449 5.36147 10.0652C5.01341 9.88627 4.76356 9.64042 4.61335 9.32533C4.56064 9.54395 4.48843 9.85982 4.39239 10.2729C4.29995 10.6853 4.23785 10.9513 4.21041 11.0719C4.18153 11.1917 4.12809 11.3917 4.0501 11.6687C3.99721 11.8735 3.92936 12.0736 3.84718 12.2669L3.59877 12.7913C3.49134 13.0163 3.37125 13.234 3.23916 13.4433C3.10845 13.6471 2.9467 13.8906 2.75389 14.1707L2.64629 14.2119L2.5748 14.1279C2.49754 13.2464 2.45782 12.7189 2.45782 12.5447C2.45782 12.0289 2.51487 11.45 2.62752 10.8074C2.738 10.1656 2.91276 9.35879 3.14745 8.38863C3.38214 7.41925 3.51645 6.84898 3.55256 6.68016C3.38719 6.31683 3.30342 5.84226 3.30342 5.25876C3.30342 4.79274 3.43846 4.35629 3.70926 3.94551C3.98078 3.53628 4.32378 3.33167 4.73973 3.33167C5.05818 3.33167 5.30515 3.44526 5.48207 3.67321C5.65971 3.90039 5.74637 4.18669 5.74637 4.53601C5.74637 4.90633 5.63227 5.44237 5.40263 6.14334C5.173 6.84509 5.0589 7.36868 5.0589 7.71644C5.0589 8.06888 5.17589 8.36374 5.40986 8.5948C5.64075 8.82598 5.9461 8.95126 6.26124 8.94412C6.5472 8.94412 6.81222 8.8741 7.05846 8.73328C7.30086 8.59659 7.51067 8.40143 7.67154 8.16301C8.02193 7.6451 8.27172 7.05634 8.40594 6.43198C8.47527 6.10366 8.5287 5.79169 8.56192 5.49838C8.59731 5.20352 8.61247 4.925 8.61247 4.66049C8.61247 3.69033 8.32651 2.93412 7.7582 2.39263C7.187 1.85115 6.44321 1.58196 5.52828 1.58196C4.48771 1.58196 3.61755 1.94451 2.9207 2.67193C2.22313 3.39702 1.87218 4.31895 1.87218 5.43692C1.87218 5.68355 1.90684 5.92161 1.97255 6.1519C2.03682 6.38141 2.10687 6.56424 2.18269 6.69961C2.25779 6.83264 2.32856 6.96257 2.39283 7.08238C2.45782 7.20219 2.49176 7.28777 2.49176 7.33912C2.49176 7.49627 2.45349 7.70088 2.37622 7.95373C2.29606 8.20658 2.20146 8.33261 2.08737 8.33261C2.07654 8.33261 2.03177 8.32406 1.95378 8.30616C1.68368 8.21929 1.43975 8.05688 1.24682 7.83548C1.04205 7.60601 0.880453 7.33601 0.77094 7.04037C0.661739 6.74578 0.576685 6.44146 0.516753 6.13089C0.452001 5.83703 0.420002 5.53589 0.421433 5.23387V5.23387Z" fill="#BFBFBF"/>
</svg>
