<svg width="24" height="25" viewBox="0 0 24 25" fill="none" xmlns="http://www.w3.org/2000/svg">
<path d="M11.9166 24.029C5.33508 24.029 0 18.6939 0 12.1123C0 5.53076 5.33508 0.195679 11.9166 0.195679C18.4982 0.195679 23.8333 5.53076 23.8333 12.1123C23.8333 18.6939 18.4982 24.029 11.9166 24.029ZM11.9166 21.6456C14.445 21.6456 16.8699 20.6412 18.6577 18.8534C20.4456 17.0656 21.45 14.6407 21.45 12.1123C21.45 9.58393 20.4456 7.1591 18.6577 5.37125C16.8699 3.58341 14.445 2.57901 11.9166 2.57901C9.38825 2.57901 6.96342 3.58341 5.17557 5.37125C3.38773 7.1591 2.38333 9.58393 2.38333 12.1123C2.38333 14.6407 3.38773 17.0656 5.17557 18.8534C6.96342 20.6412 9.38825 21.6456 11.9166 21.6456ZM17.2791 6.74983L14.3 14.4957L6.55416 17.4748L9.53332 9.729L17.2791 6.74983ZM11.9166 13.304C12.2327 13.304 12.5358 13.1784 12.7593 12.955C12.9828 12.7315 13.1083 12.4284 13.1083 12.1123C13.1083 11.7963 12.9828 11.4932 12.7593 11.2697C12.5358 11.0462 12.2327 10.9207 11.9166 10.9207C11.6006 10.9207 11.2975 11.0462 11.074 11.2697C10.8505 11.4932 10.725 11.7963 10.725 12.1123C10.725 12.4284 10.8505 12.7315 11.074 12.955C11.2975 13.1784 11.6006 13.304 11.9166 13.304Z" fill="#24243E"/>
</svg>
