<svg width="15" height="15" viewBox="0 0 15 15" fill="none" xmlns="http://www.w3.org/2000/svg">
<path d="M14.1042 1.82763C13.8842 1.94676 13.6581 2.04732 13.427 2.12897C13.7006 1.75111 13.9091 1.30652 14.0364 0.820019C14.065 0.710975 14.0354 0.591612 13.962 0.520275C13.8887 0.448904 13.7869 0.440354 13.7062 0.498767C13.2155 0.854218 12.6861 1.10968 12.1311 1.25903C11.5719 0.591713 10.8125 0.211914 10.0274 0.211914C8.3702 0.211914 7.02196 1.85862 7.02196 3.88265C7.02196 4.04206 7.03022 4.2006 7.04657 4.35693C4.99016 4.13641 3.07834 2.90186 1.76551 0.934907C1.71872 0.864805 1.64664 0.826999 1.57284 0.834246C1.49902 0.841293 1.43265 0.892158 1.39536 0.970342C1.12908 1.52838 0.988316 2.16665 0.988316 2.81606C0.988316 3.70057 1.24685 4.53975 1.70357 5.19551C1.5647 5.13677 1.42995 5.06336 1.30132 4.97616C1.23228 4.9292 1.148 4.92994 1.0794 4.97796C1.01077 5.02602 0.967727 5.11436 0.965895 5.21094C0.965566 5.22721 0.965566 5.24347 0.965566 5.25997C0.965566 6.58021 1.54733 7.76887 2.4368 8.41672C2.36037 8.4074 2.28403 8.39387 2.20815 8.37617C2.12992 8.35791 2.0495 8.3914 1.99675 8.46428C1.94393 8.53708 1.92643 8.63858 1.95079 8.73126C2.28001 9.98671 3.12764 10.9101 4.15234 11.1917C3.30244 11.8418 2.33054 12.1824 1.31026 12.1824C1.09736 12.1824 0.883262 12.1671 0.673727 12.1369C0.569629 12.1217 0.470098 12.1968 0.434633 12.3177C0.399168 12.4387 0.436766 12.5736 0.525305 12.6429C1.83603 13.6694 3.35158 14.2119 4.90807 14.2119C7.96792 14.2119 9.88209 12.4496 10.949 10.9711C12.2795 9.12759 13.0425 6.68749 13.0425 4.27651C13.0425 4.17578 13.0412 4.07409 13.0387 3.97269C13.5636 3.48966 14.0155 2.90507 14.3833 2.23317C14.4391 2.13114 14.4331 1.99625 14.3684 1.90234C14.3038 1.80826 14.1961 1.77786 14.1042 1.82763Z" fill="#BFBFBF"/>
</svg>
